<mxfile host="app.diagrams.net" modified="2021-01-30T17:10:45.342Z" agent="5.0 (Macintosh; Intel Mac OS X 10_15_2) AppleWebKit/605.1.15 (KHTML, like Gecko) Version/13.0.4 Safari/605.1.15" etag="A08ZOZHJjtjBijKzc2YO" version="14.2.7" type="github">
  <diagram id="LDu1g8iAA_mkwjcUvN5m" name="Page-1">
    <mxGraphModel dx="1891" dy="691" grid="1" gridSize="10" guides="1" tooltips="1" connect="1" arrows="1" fold="1" page="1" pageScale="1" pageWidth="827" pageHeight="1169" math="0" shadow="0">
      <root>
        <mxCell id="0" />
        <mxCell id="1" parent="0" />
        <mxCell id="CZNfJbykFGTCj9U6SbUd-21" style="edgeStyle=orthogonalEdgeStyle;rounded=0;orthogonalLoop=1;jettySize=auto;html=1;exitX=0.5;exitY=1;exitDx=0;exitDy=0;entryX=0.5;entryY=0;entryDx=0;entryDy=0;" edge="1" parent="1" source="CZNfJbykFGTCj9U6SbUd-1" target="CZNfJbykFGTCj9U6SbUd-4">
          <mxGeometry relative="1" as="geometry" />
        </mxCell>
        <mxCell id="CZNfJbykFGTCj9U6SbUd-22" value="Инициализация" style="edgeLabel;html=1;align=center;verticalAlign=middle;resizable=0;points=[];" vertex="1" connectable="0" parent="CZNfJbykFGTCj9U6SbUd-21">
          <mxGeometry x="-0.1971" y="-2" relative="1" as="geometry">
            <mxPoint as="offset" />
          </mxGeometry>
        </mxCell>
        <mxCell id="CZNfJbykFGTCj9U6SbUd-1" value="Начало выполнения" style="rounded=1;whiteSpace=wrap;html=1;" vertex="1" parent="1">
          <mxGeometry x="350" width="150" height="60" as="geometry" />
        </mxCell>
        <mxCell id="CZNfJbykFGTCj9U6SbUd-25" style="edgeStyle=orthogonalEdgeStyle;rounded=0;orthogonalLoop=1;jettySize=auto;html=1;exitX=0;exitY=0;exitDx=0;exitDy=0;" edge="1" parent="1" source="CZNfJbykFGTCj9U6SbUd-4" target="CZNfJbykFGTCj9U6SbUd-24">
          <mxGeometry relative="1" as="geometry">
            <Array as="points">
              <mxPoint x="230" y="100" />
            </Array>
          </mxGeometry>
        </mxCell>
        <mxCell id="CZNfJbykFGTCj9U6SbUd-27" value="Команда завершения работы" style="edgeLabel;html=1;align=center;verticalAlign=middle;resizable=0;points=[];" vertex="1" connectable="0" parent="CZNfJbykFGTCj9U6SbUd-25">
          <mxGeometry x="0.5339" y="-1" relative="1" as="geometry">
            <mxPoint x="-1" y="-17.71" as="offset" />
          </mxGeometry>
        </mxCell>
        <mxCell id="CZNfJbykFGTCj9U6SbUd-29" style="edgeStyle=orthogonalEdgeStyle;rounded=0;orthogonalLoop=1;jettySize=auto;html=1;exitX=1;exitY=0.5;exitDx=0;exitDy=0;entryX=0.5;entryY=1;entryDx=0;entryDy=0;" edge="1" parent="1" source="CZNfJbykFGTCj9U6SbUd-4" target="CZNfJbykFGTCj9U6SbUd-28">
          <mxGeometry relative="1" as="geometry" />
        </mxCell>
        <mxCell id="CZNfJbykFGTCj9U6SbUd-32" value="&amp;nbsp; Кнопка &quot;О программе&quot; &amp;nbsp;" style="edgeLabel;html=1;align=center;verticalAlign=middle;resizable=0;points=[];" vertex="1" connectable="0" parent="CZNfJbykFGTCj9U6SbUd-29">
          <mxGeometry x="-0.3108" y="1" relative="1" as="geometry">
            <mxPoint x="20.59" y="0.98" as="offset" />
          </mxGeometry>
        </mxCell>
        <mxCell id="CZNfJbykFGTCj9U6SbUd-34" style="edgeStyle=orthogonalEdgeStyle;rounded=0;orthogonalLoop=1;jettySize=auto;html=1;exitX=0;exitY=0.25;exitDx=0;exitDy=0;entryX=0.5;entryY=0;entryDx=0;entryDy=0;" edge="1" parent="1" source="CZNfJbykFGTCj9U6SbUd-4" target="CZNfJbykFGTCj9U6SbUd-17">
          <mxGeometry relative="1" as="geometry" />
        </mxCell>
        <mxCell id="CZNfJbykFGTCj9U6SbUd-51" value="Открытие раздела" style="edgeLabel;html=1;align=center;verticalAlign=middle;resizable=0;points=[];" vertex="1" connectable="0" parent="CZNfJbykFGTCj9U6SbUd-34">
          <mxGeometry x="0.0171" y="-2" relative="1" as="geometry">
            <mxPoint as="offset" />
          </mxGeometry>
        </mxCell>
        <mxCell id="CZNfJbykFGTCj9U6SbUd-49" style="edgeStyle=orthogonalEdgeStyle;rounded=0;orthogonalLoop=1;jettySize=auto;html=1;exitX=1;exitY=1;exitDx=0;exitDy=0;entryX=0;entryY=0.5;entryDx=0;entryDy=0;" edge="1" parent="1" source="CZNfJbykFGTCj9U6SbUd-4" target="CZNfJbykFGTCj9U6SbUd-18">
          <mxGeometry relative="1" as="geometry" />
        </mxCell>
        <mxCell id="CZNfJbykFGTCj9U6SbUd-50" value="Открытие&lt;br&gt;раздела" style="edgeLabel;html=1;align=center;verticalAlign=middle;resizable=0;points=[];" vertex="1" connectable="0" parent="CZNfJbykFGTCj9U6SbUd-49">
          <mxGeometry x="-0.3728" relative="1" as="geometry">
            <mxPoint as="offset" />
          </mxGeometry>
        </mxCell>
        <mxCell id="CZNfJbykFGTCj9U6SbUd-65" style="edgeStyle=orthogonalEdgeStyle;rounded=0;orthogonalLoop=1;jettySize=auto;html=1;exitX=0.5;exitY=1;exitDx=0;exitDy=0;entryX=0.75;entryY=0;entryDx=0;entryDy=0;" edge="1" parent="1" source="CZNfJbykFGTCj9U6SbUd-4" target="CZNfJbykFGTCj9U6SbUd-19">
          <mxGeometry relative="1" as="geometry" />
        </mxCell>
        <mxCell id="CZNfJbykFGTCj9U6SbUd-67" value="Открытие раздела" style="edgeLabel;html=1;align=center;verticalAlign=middle;resizable=0;points=[];" vertex="1" connectable="0" parent="CZNfJbykFGTCj9U6SbUd-65">
          <mxGeometry x="-0.3845" y="3" relative="1" as="geometry">
            <mxPoint as="offset" />
          </mxGeometry>
        </mxCell>
        <mxCell id="CZNfJbykFGTCj9U6SbUd-4" value="Ожидание" style="rounded=1;whiteSpace=wrap;html=1;" vertex="1" parent="1">
          <mxGeometry x="350" y="100" width="150" height="60" as="geometry" />
        </mxCell>
        <mxCell id="CZNfJbykFGTCj9U6SbUd-35" style="edgeStyle=orthogonalEdgeStyle;rounded=0;orthogonalLoop=1;jettySize=auto;html=1;exitX=1;exitY=0.5;exitDx=0;exitDy=0;entryX=0;entryY=0.5;entryDx=0;entryDy=0;" edge="1" parent="1" source="CZNfJbykFGTCj9U6SbUd-17" target="CZNfJbykFGTCj9U6SbUd-4">
          <mxGeometry relative="1" as="geometry">
            <Array as="points">
              <mxPoint x="280" y="180" />
              <mxPoint x="280" y="130" />
            </Array>
          </mxGeometry>
        </mxCell>
        <mxCell id="CZNfJbykFGTCj9U6SbUd-36" value="Показ информации" style="edgeLabel;html=1;align=center;verticalAlign=middle;resizable=0;points=[];" vertex="1" connectable="0" parent="CZNfJbykFGTCj9U6SbUd-35">
          <mxGeometry x="-0.5473" y="-1" relative="1" as="geometry">
            <mxPoint x="13.53" y="-1.03" as="offset" />
          </mxGeometry>
        </mxCell>
        <mxCell id="CZNfJbykFGTCj9U6SbUd-38" style="edgeStyle=orthogonalEdgeStyle;rounded=0;orthogonalLoop=1;jettySize=auto;html=1;entryX=0.5;entryY=0;entryDx=0;entryDy=0;" edge="1" parent="1" source="CZNfJbykFGTCj9U6SbUd-17" target="CZNfJbykFGTCj9U6SbUd-37">
          <mxGeometry relative="1" as="geometry" />
        </mxCell>
        <mxCell id="CZNfJbykFGTCj9U6SbUd-39" value="Открытие диалогового&lt;br&gt;окна" style="edgeLabel;html=1;align=center;verticalAlign=middle;resizable=0;points=[];" vertex="1" connectable="0" parent="CZNfJbykFGTCj9U6SbUd-38">
          <mxGeometry x="-0.0922" y="-1" relative="1" as="geometry">
            <mxPoint as="offset" />
          </mxGeometry>
        </mxCell>
        <mxCell id="CZNfJbykFGTCj9U6SbUd-42" style="edgeStyle=orthogonalEdgeStyle;rounded=0;orthogonalLoop=1;jettySize=auto;html=1;exitX=0;exitY=0.5;exitDx=0;exitDy=0;entryX=0;entryY=0.5;entryDx=0;entryDy=0;" edge="1" parent="1" source="CZNfJbykFGTCj9U6SbUd-17" target="CZNfJbykFGTCj9U6SbUd-41">
          <mxGeometry relative="1" as="geometry">
            <Array as="points">
              <mxPoint x="-10" y="180" />
              <mxPoint x="-10" y="390" />
            </Array>
          </mxGeometry>
        </mxCell>
        <mxCell id="CZNfJbykFGTCj9U6SbUd-45" value="Открытие&lt;br&gt;выбранной&lt;br&gt;корреспондеции" style="edgeLabel;html=1;align=center;verticalAlign=middle;resizable=0;points=[];" vertex="1" connectable="0" parent="CZNfJbykFGTCj9U6SbUd-42">
          <mxGeometry x="-0.0814" y="-1" relative="1" as="geometry">
            <mxPoint as="offset" />
          </mxGeometry>
        </mxCell>
        <mxCell id="CZNfJbykFGTCj9U6SbUd-17" value="Внутренняя&lt;br&gt;корреспондеция" style="rounded=1;whiteSpace=wrap;html=1;" vertex="1" parent="1">
          <mxGeometry x="50" y="150" width="120" height="60" as="geometry" />
        </mxCell>
        <mxCell id="CZNfJbykFGTCj9U6SbUd-52" style="edgeStyle=orthogonalEdgeStyle;rounded=0;orthogonalLoop=1;jettySize=auto;html=1;entryX=1;entryY=0.75;entryDx=0;entryDy=0;" edge="1" parent="1" source="CZNfJbykFGTCj9U6SbUd-18" target="CZNfJbykFGTCj9U6SbUd-4">
          <mxGeometry relative="1" as="geometry">
            <Array as="points">
              <mxPoint x="750" y="260" />
              <mxPoint x="750" y="145" />
            </Array>
          </mxGeometry>
        </mxCell>
        <mxCell id="CZNfJbykFGTCj9U6SbUd-53" value="Показ&lt;br&gt;информации" style="edgeLabel;html=1;align=center;verticalAlign=middle;resizable=0;points=[];" vertex="1" connectable="0" parent="CZNfJbykFGTCj9U6SbUd-52">
          <mxGeometry x="-0.3406" y="-2" relative="1" as="geometry">
            <mxPoint x="-2.06" y="13.41" as="offset" />
          </mxGeometry>
        </mxCell>
        <mxCell id="CZNfJbykFGTCj9U6SbUd-55" style="edgeStyle=orthogonalEdgeStyle;rounded=0;orthogonalLoop=1;jettySize=auto;html=1;entryX=0.5;entryY=0;entryDx=0;entryDy=0;" edge="1" parent="1" source="CZNfJbykFGTCj9U6SbUd-18" target="CZNfJbykFGTCj9U6SbUd-54">
          <mxGeometry relative="1" as="geometry" />
        </mxCell>
        <mxCell id="CZNfJbykFGTCj9U6SbUd-59" value="Открытие диалога" style="edgeLabel;html=1;align=center;verticalAlign=middle;resizable=0;points=[];" vertex="1" connectable="0" parent="CZNfJbykFGTCj9U6SbUd-55">
          <mxGeometry x="-0.5224" y="1" relative="1" as="geometry">
            <mxPoint x="-1" y="8.24" as="offset" />
          </mxGeometry>
        </mxCell>
        <mxCell id="CZNfJbykFGTCj9U6SbUd-62" style="edgeStyle=orthogonalEdgeStyle;rounded=0;orthogonalLoop=1;jettySize=auto;html=1;exitX=0;exitY=1;exitDx=0;exitDy=0;entryX=0;entryY=0.5;entryDx=0;entryDy=0;" edge="1" parent="1" source="CZNfJbykFGTCj9U6SbUd-18" target="CZNfJbykFGTCj9U6SbUd-61">
          <mxGeometry relative="1" as="geometry">
            <Array as="points">
              <mxPoint x="500" y="270" />
              <mxPoint x="500" y="555" />
            </Array>
          </mxGeometry>
        </mxCell>
        <mxCell id="CZNfJbykFGTCj9U6SbUd-64" value="Выбор&lt;br&gt;&amp;nbsp;подразделения" style="edgeLabel;html=1;align=center;verticalAlign=middle;resizable=0;points=[];" vertex="1" connectable="0" parent="CZNfJbykFGTCj9U6SbUd-62">
          <mxGeometry x="-0.186" relative="1" as="geometry">
            <mxPoint as="offset" />
          </mxGeometry>
        </mxCell>
        <mxCell id="CZNfJbykFGTCj9U6SbUd-18" value="Справочник&lt;br&gt;подразделений" style="rounded=1;whiteSpace=wrap;html=1;" vertex="1" parent="1">
          <mxGeometry x="560" y="230" width="120" height="40" as="geometry" />
        </mxCell>
        <mxCell id="CZNfJbykFGTCj9U6SbUd-19" value="Приказы и распоряжения" style="rounded=1;whiteSpace=wrap;html=1;" vertex="1" parent="1">
          <mxGeometry x="340" y="555" width="120" height="60" as="geometry" />
        </mxCell>
        <mxCell id="CZNfJbykFGTCj9U6SbUd-24" value="Завершение" style="rounded=1;whiteSpace=wrap;html=1;" vertex="1" parent="1">
          <mxGeometry x="170" width="120" height="60" as="geometry" />
        </mxCell>
        <mxCell id="CZNfJbykFGTCj9U6SbUd-30" style="edgeStyle=orthogonalEdgeStyle;rounded=0;orthogonalLoop=1;jettySize=auto;html=1;entryX=0.824;entryY=0.013;entryDx=0;entryDy=0;entryPerimeter=0;" edge="1" parent="1" source="CZNfJbykFGTCj9U6SbUd-28" target="CZNfJbykFGTCj9U6SbUd-4">
          <mxGeometry relative="1" as="geometry" />
        </mxCell>
        <mxCell id="CZNfJbykFGTCj9U6SbUd-31" value="Кнопка закрыть" style="edgeLabel;html=1;align=center;verticalAlign=middle;resizable=0;points=[];" vertex="1" connectable="0" parent="CZNfJbykFGTCj9U6SbUd-30">
          <mxGeometry x="0.0025" y="1" relative="1" as="geometry">
            <mxPoint x="18.24" y="-1.06" as="offset" />
          </mxGeometry>
        </mxCell>
        <mxCell id="CZNfJbykFGTCj9U6SbUd-28" value="Сведения об авторе&lt;br&gt;и назначении программы" style="rounded=1;whiteSpace=wrap;html=1;" vertex="1" parent="1">
          <mxGeometry x="650" y="40" width="160" height="60" as="geometry" />
        </mxCell>
        <mxCell id="CZNfJbykFGTCj9U6SbUd-40" style="edgeStyle=orthogonalEdgeStyle;rounded=0;orthogonalLoop=1;jettySize=auto;html=1;" edge="1" parent="1" source="CZNfJbykFGTCj9U6SbUd-37">
          <mxGeometry relative="1" as="geometry">
            <mxPoint x="240" y="190" as="targetPoint" />
            <Array as="points">
              <mxPoint x="240" y="300" />
              <mxPoint x="240" y="200" />
            </Array>
          </mxGeometry>
        </mxCell>
        <mxCell id="CZNfJbykFGTCj9U6SbUd-37" value="Форма выдачи справок" style="rounded=1;whiteSpace=wrap;html=1;" vertex="1" parent="1">
          <mxGeometry x="50" y="270" width="120" height="60" as="geometry" />
        </mxCell>
        <mxCell id="CZNfJbykFGTCj9U6SbUd-43" style="edgeStyle=orthogonalEdgeStyle;rounded=0;orthogonalLoop=1;jettySize=auto;html=1;exitX=1;exitY=0.5;exitDx=0;exitDy=0;" edge="1" parent="1" source="CZNfJbykFGTCj9U6SbUd-41">
          <mxGeometry relative="1" as="geometry">
            <mxPoint x="240" y="300" as="targetPoint" />
            <Array as="points">
              <mxPoint x="240" y="390" />
              <mxPoint x="240" y="300" />
            </Array>
          </mxGeometry>
        </mxCell>
        <mxCell id="CZNfJbykFGTCj9U6SbUd-41" value="Форма работы&lt;br&gt;с корреспондецией" style="rounded=1;whiteSpace=wrap;html=1;" vertex="1" parent="1">
          <mxGeometry x="50" y="360" width="120" height="60" as="geometry" />
        </mxCell>
        <mxCell id="CZNfJbykFGTCj9U6SbUd-47" style="edgeStyle=orthogonalEdgeStyle;rounded=0;orthogonalLoop=1;jettySize=auto;html=1;exitX=0.75;exitY=0;exitDx=0;exitDy=0;entryX=0;entryY=1;entryDx=0;entryDy=0;" edge="1" parent="1" source="CZNfJbykFGTCj9U6SbUd-44" target="CZNfJbykFGTCj9U6SbUd-4">
          <mxGeometry relative="1" as="geometry">
            <Array as="points">
              <mxPoint x="310" y="430" />
              <mxPoint x="310" y="160" />
            </Array>
          </mxGeometry>
        </mxCell>
        <mxCell id="CZNfJbykFGTCj9U6SbUd-44" value="Форма печати" style="rounded=1;whiteSpace=wrap;html=1;" vertex="1" parent="1">
          <mxGeometry x="260" y="430" width="140" height="60" as="geometry" />
        </mxCell>
        <mxCell id="CZNfJbykFGTCj9U6SbUd-46" value="" style="endArrow=classic;html=1;entryX=0;entryY=0;entryDx=0;entryDy=0;" edge="1" parent="1" target="CZNfJbykFGTCj9U6SbUd-44">
          <mxGeometry width="50" height="50" relative="1" as="geometry">
            <mxPoint x="240" y="300" as="sourcePoint" />
            <mxPoint x="300" y="300" as="targetPoint" />
            <Array as="points">
              <mxPoint x="260" y="300" />
            </Array>
          </mxGeometry>
        </mxCell>
        <mxCell id="CZNfJbykFGTCj9U6SbUd-48" value="Открытие&lt;br&gt;диалога" style="edgeLabel;html=1;align=center;verticalAlign=middle;resizable=0;points=[];" vertex="1" connectable="0" parent="CZNfJbykFGTCj9U6SbUd-46">
          <mxGeometry x="0.1867" y="1" relative="1" as="geometry">
            <mxPoint x="9" y="-9.41" as="offset" />
          </mxGeometry>
        </mxCell>
        <mxCell id="CZNfJbykFGTCj9U6SbUd-57" style="edgeStyle=orthogonalEdgeStyle;rounded=0;orthogonalLoop=1;jettySize=auto;html=1;entryX=0.5;entryY=0;entryDx=0;entryDy=0;" edge="1" parent="1" source="CZNfJbykFGTCj9U6SbUd-54" target="CZNfJbykFGTCj9U6SbUd-56">
          <mxGeometry relative="1" as="geometry" />
        </mxCell>
        <mxCell id="CZNfJbykFGTCj9U6SbUd-58" value="Формирование запроса" style="edgeLabel;html=1;align=center;verticalAlign=middle;resizable=0;points=[];" vertex="1" connectable="0" parent="CZNfJbykFGTCj9U6SbUd-57">
          <mxGeometry x="-0.1902" y="2" relative="1" as="geometry">
            <mxPoint as="offset" />
          </mxGeometry>
        </mxCell>
        <mxCell id="CZNfJbykFGTCj9U6SbUd-54" value="Форма поиска" style="rounded=1;whiteSpace=wrap;html=1;" vertex="1" parent="1">
          <mxGeometry x="560" y="320" width="120" height="60" as="geometry" />
        </mxCell>
        <mxCell id="CZNfJbykFGTCj9U6SbUd-60" style="edgeStyle=orthogonalEdgeStyle;rounded=0;orthogonalLoop=1;jettySize=auto;html=1;" edge="1" parent="1" source="CZNfJbykFGTCj9U6SbUd-56">
          <mxGeometry relative="1" as="geometry">
            <mxPoint x="750" y="260" as="targetPoint" />
          </mxGeometry>
        </mxCell>
        <mxCell id="CZNfJbykFGTCj9U6SbUd-56" value="Обращение к БД" style="rounded=1;whiteSpace=wrap;html=1;" vertex="1" parent="1">
          <mxGeometry x="560" y="440" width="120" height="60" as="geometry" />
        </mxCell>
        <mxCell id="CZNfJbykFGTCj9U6SbUd-63" style="edgeStyle=orthogonalEdgeStyle;rounded=0;orthogonalLoop=1;jettySize=auto;html=1;" edge="1" parent="1" source="CZNfJbykFGTCj9U6SbUd-61">
          <mxGeometry relative="1" as="geometry">
            <mxPoint x="750" y="470" as="targetPoint" />
          </mxGeometry>
        </mxCell>
        <mxCell id="CZNfJbykFGTCj9U6SbUd-61" value="Редактирование справочника" style="rounded=1;whiteSpace=wrap;html=1;" vertex="1" parent="1">
          <mxGeometry x="560" y="525" width="120" height="60" as="geometry" />
        </mxCell>
      </root>
    </mxGraphModel>
  </diagram>
</mxfile>
